<svg width="20" height="20" viewBox="0 0 20 20" fill="none" xmlns="http://www.w3.org/2000/svg">
<path d="M8.04998 1.08879C9.26193 0.412098 10.7381 0.412097 11.95 1.08879L12.0602 1.15031C12.5158 1.40471 13.0168 1.5675 13.535 1.62949L13.6603 1.64449C15.0385 1.8094 16.2327 2.67705 16.8155 3.93687L16.8685 4.0514C17.0875 4.52503 17.3972 4.95121 17.7799 5.30593L17.8725 5.39171C18.8906 6.33523 19.3467 7.73912 19.0777 9.10086L19.0532 9.22466C18.952 9.7366 18.952 10.2634 19.0532 10.7753L19.0777 10.8991C19.3467 12.2609 18.8906 13.6648 17.8725 14.6083L17.7799 14.6941C17.3972 15.0488 17.0875 15.475 16.8685 15.9486L16.8155 16.0631C16.2327 17.323 15.0385 18.1906 13.6603 18.3555L13.535 18.3705C13.0168 18.4325 12.5158 18.5953 12.0602 18.8497L11.95 18.9112C10.7381 19.5879 9.26193 19.5879 8.04998 18.9112L7.9398 18.8497C7.48417 18.5953 6.98316 18.4325 6.46501 18.3705L6.33972 18.3555C4.96148 18.1906 3.76726 17.323 3.18452 16.0631L3.13155 15.9486C2.91247 15.475 2.60283 15.0488 2.22008 14.6941L2.12752 14.6083C1.10944 13.6648 0.653288 12.2609 0.922346 10.8991L0.946806 10.7753C1.04796 10.2634 1.04796 9.7366 0.946806 9.22466L0.922346 9.10086C0.653288 7.73912 1.10944 6.33523 2.12752 5.39171L2.22008 5.30593C2.60282 4.95121 2.91247 4.52503 3.13155 4.0514L3.18452 3.93687C3.76726 2.67705 4.96148 1.8094 6.33972 1.64449L6.46501 1.62949C6.98316 1.5675 7.48417 1.40471 7.9398 1.15031L8.04998 1.08879Z" fill="#2D85FF"/>
<path d="M13.5766 9.14072C13.9385 8.77877 13.9385 8.19193 13.5766 7.82999C13.2146 7.46804 12.6278 7.46804 12.2658 7.82999L8.66133 11.4345C8.29939 11.7964 8.29939 12.3833 8.66133 12.7452C9.02328 13.1072 9.61012 13.1072 9.97206 12.7452L13.5766 9.14072Z" fill="white"/>
<path d="M8.00595 9.46884C7.644 9.10689 7.05717 9.10689 6.69522 9.46884C6.33327 9.83079 6.33327 10.4176 6.69522 10.7796L8.66132 12.7457C9.02326 13.1076 9.6101 13.1076 9.97205 12.7457C10.334 12.3837 10.334 11.7969 9.97205 11.4349L8.00595 9.46884Z" fill="white"/>
</svg>
