<svg width="19" height="19" viewBox="0 0 19 19" fill="none" xmlns="http://www.w3.org/2000/svg">
<path fill-rule="evenodd" clip-rule="evenodd" d="M14.1 1C14.1 0.723858 14.3239 0.5 14.6 0.5H18C18.2761 0.5 18.5 0.723858 18.5 1V18.5H17.5V1.5H15.1V18.5H14.1V1ZM7.3 6.23077C7.3 5.95463 7.52386 5.73077 7.8 5.73077H11.2C11.4761 5.73077 11.7 5.95463 11.7 6.23077V18.5H10.7V6.73077H8.3V18.5H7.3V6.23077ZM0.5 11.4615C0.5 11.1854 0.723858 10.9615 1 10.9615H4.4C4.67614 10.9615 4.9 11.1854 4.9 11.4615V18.5H3.9V11.9615H1.5V18.5H0.5V11.4615Z" fill="black"/>
</svg>
