<svg width="26" height="22" viewBox="0 0 26 22" fill="none" xmlns="http://www.w3.org/2000/svg">
<path d="M2.41519 2.35533C3.65153 1.16195 5.29921 0.5 7.05664 0.5C8.81438 0.5 10.4681 1.16218 11.7103 2.3614L12.1462 2.78221C12.3762 3.0043 12.6838 3.12721 13.0059 3.12721C13.3199 3.12721 13.6341 3.00573 13.8656 2.78221L13.5184 2.42249L13.8656 2.78221L14.2897 2.37277C15.5321 1.17341 17.1799 0.511373 18.9434 0.511373C20.701 0.511373 22.3488 1.17347 23.5852 2.36709C24.8263 3.56528 25.5 5.14778 25.5 6.8296C25.5 8.51032 24.8212 10.0931 23.5793 11.2921L13.0059 21.4998L2.42068 11.2807C1.17875 10.0818 0.5 8.49895 0.5 6.81822C0.5 5.13754 1.17874 3.55448 2.41519 2.35533Z" fill="#F85C5C" stroke="#F85C5C"/>
</svg>
