<svg width="21" height="21" viewBox="0 0 21 21" fill="none" xmlns="http://www.w3.org/2000/svg">
<path d="M8.96416 3.97736L16.6741 9.25078C16.6741 9.25078 18.5098 10.5064 17.2542 12.342C15.9986 14.1777 14.1629 12.9222 14.1629 12.9222L6.82015 7.89986C6.82015 7.89986 4.98446 6.64429 3.72888 8.47998C2.4733 10.3157 4.309 11.5713 4.309 11.5713L12.0189 16.8447" stroke="#1A1919" stroke-linecap="square" stroke-linejoin="round"/>
<path fill-rule="evenodd" clip-rule="evenodd" d="M6.99311 3.70729C7.39865 3.98467 7.95225 3.88078 8.22962 3.47525C8.507 3.06972 8.40311 2.51611 7.99758 2.23874C7.59204 1.96136 7.03844 2.06525 6.76107 2.47079C6.48369 2.87632 6.58758 3.42992 6.99311 3.70729ZM6.49088 4.44157C7.30195 4.99632 8.40915 4.78854 8.9639 3.97748C9.51865 3.16642 9.31087 2.05921 8.49981 1.50446C7.68874 0.949712 6.58154 1.15749 6.02679 1.96856C5.47204 2.77962 5.67982 3.88682 6.49088 4.44157Z" fill="#1A1919"/>
<path fill-rule="evenodd" clip-rule="evenodd" d="M12.9848 18.5833C13.3903 18.8606 13.9439 18.7568 14.2213 18.3512C14.4987 17.9457 14.3948 17.3921 13.9893 17.1147C13.5837 16.8373 13.0301 16.9412 12.7528 17.3468C12.4754 17.7523 12.5793 18.3059 12.9848 18.5833ZM12.4826 19.3175C13.2936 19.8723 14.4009 19.6645 14.9556 18.8535C15.5103 18.0424 15.3026 16.9352 14.4915 16.3804C13.6804 15.8257 12.5732 16.0335 12.0185 16.8445C11.4637 17.6556 11.6715 18.7628 12.4826 19.3175Z" fill="#1A1919"/>
</svg>
