<svg width="19" height="19" viewBox="0 0 19 19" fill="none" xmlns="http://www.w3.org/2000/svg">
<path d="M19 9.5C19 14.7467 14.7467 19 9.5 19C4.25329 19 0 14.7467 0 9.5C0 4.25329 4.25329 0 9.5 0C14.7467 0 19 4.25329 19 9.5ZM0.95 9.5C0.95 14.222 4.77797 18.05 9.5 18.05C14.222 18.05 18.05 14.222 18.05 9.5C18.05 4.77797 14.222 0.95 9.5 0.95C4.77797 0.95 0.95 4.77797 0.95 9.5Z" fill="#1A1919"/>
<line x1="9.5" y1="3.5" x2="9.5" y2="10.1" stroke="#1A1919" stroke-linecap="round"/>
<line x1="12.8062" y1="13.5342" x2="9.54294" y2="10.1517" stroke="#1A1919" stroke-linecap="round"/>
</svg>
